Patient4_TMGait_0pt5_01_right_24_EMG.mot
version=1
nRows=13
nColumns=33
inDegrees=no
endheader
time	1LAddLong	2LGlutMax	3LGlutMed	4LIliopsoas	5LSemiMemb	6LBicFemLong	7LRecFem	8LVastMed	9LVastLat	10LGasMed	11LTibAnt	12lTibPost	13LPeroneusLong	14LSol	15LExtDigLong	16LFlexDigLong	17RAddLong	18RGlutMax	19RGlutMed	20RIliopsoas	21RSemiMemb	22RBicFemLong	23RRecFem	24RVastMed	25RVastLat	26RGasMed	27RTibAnt	28RTibPost	29RPeroneusLong	30RSol	31RExtDigLong	32RFlexDigLong
31.915	-0.002136	-0.046082	-0.15533	0.024567	0.007324	-0.014343	-0.046997	-0.015106	0.18692	-0.045013	-0.053253	-0.000916	-0.018768	0.14389	-0.17624	-0.011139	0.03891	-0.61874	-0.84366	0.094452	0.17471	-0.17532	-0.2417	-0.017242	-0.20432	0.020447	0.000763	-0.071564	0.08194	-0.29221	0.002136	-0.00412
31.916	0.006409	-0.06546	-0.15396	0.018005	-0.000916	-0.011902	0.034637	-0.013428	0.17212	0.005035	-0.11581	-0.000305	-0.09903	0.064697	-0.46097	-0.025482	0.022583	-0.63873	-0.63675	0.00946	0.30762	-0.21378	-0.057373	0.051422	-0.16586	0.023499	0.001831	-0.12497	-0.10574	-0.53955	-0.002136	-0.002136
31.917	0.003204	-0.12238	-0.15503	0.036621	0.00412	-0.001678	0.031128	-0.011292	0.15625	0.010071	-0.078278	0.008698	-0.10788	-0.032959	-0.51376	-0.001678	0.010681	-0.8017	-0.29678	-0.076294	0.29755	-0.18799	0.052948	0.046082	-0.16769	0.007019	0.010376	0.02243	-0.17197	-0.70984	-0.002594	-0.009308
31.918	0.001221	-0.15823	-0.1561	0.035858	0.002747	-0.027466	0.037079	-0.02182	0.17777	-0.020294	-0.13077	0.002899	-0.11276	0.021057	-0.14374	0.004883	-0.028229	-0.8432	-0.13534	-0.082245	0.046997	-0.11261	0.053558	0.11719	-0.043793	-0.002289	0.047607	0.21103	-0.14771	-0.34988	-0.00061	-0.013885
31.919	0.002136	-0.17975	-0.16205	0.027618	0.005188	-0.002747	-0.067749	-0.004425	0.15472	0.004425	-0.037689	0.005646	-0.16205	-0.008392	0.168	-0.016785	-0.040283	-0.81757	-0.31555	-0.005341	-0.12451	-0.17609	0.067444	0.069122	0.044403	-0.011749	0.22201	0.055695	-0.22507	0.086975	-0.001984	-0.010223
31.92	-0.005493	-0.23102	-0.17319	-0.018768	0.007324	-0.023956	-0.10208	-0.005035	0.14816	0.020599	0.13245	0.007629	-0.15015	-0.070801	0.32715	-0.007935	0.010071	-0.67764	-0.23895	0.08316	-0.12741	-0.090027	-0.010681	0.07309	0.14435	-0.011597	0.37064	0.020142	-0.14969	0.24063	-0.002747	-0.016174
31.921	-0.000305	-0.26047	-0.18555	-0.012207	0.005951	-0.018311	-0.082245	0.003357	0.1506	0.014191	0.31815	0.006409	-0.084534	-0.08667	0.41763	0.002594	0.014648	-0.64758	0.34103	0.097961	0.018921	-0.11765	0.040741	0.088501	0.12741	-0.006714	0.47852	0.019989	0.038605	-0.23865	-0.000153	-0.01709
31.922	0.008087	-0.29373	-0.17777	-0.021057	0.001373	-0.014801	-0.071259	-0.008698	0.12436	0.010986	0.11871	0.003662	-0.006409	-0.063629	0.2504	-0.004425	0.023499	-0.63339	0.022583	0.023804	0.15823	-0.17197	0.076752	0.098877	0.084839	0.016479	0.43793	-0.049133	-0.091095	-0.57068	-0.001678	-0.017242
31.923	-0.000916	-0.38101	-0.17899	-0.009003	0.001678	-0.026703	-0.063934	-0.012207	0.12283	-0.002594	-0.18021	0.003662	0.077972	0.096283	0.70404	-0.005493	0.013275	-0.74204	-0.57922	0.065002	0.16022	-0.12848	0.049133	0.062256	0.031891	0.046844	0.032501	-0.10803	-0.19577	-0.44189	-0.002441	-0.012665
31.924	-0.002899	-0.42343	-0.18753	-0.00412	0.004272	-0.01236	-0.066986	0.001526	0.11597	0.001373	-0.19196	-0.012665	0.054474	0.15289	0.68893	-0.014038	-0.021362	-0.75546	-0.82855	0.025635	0.06958	0.001373	0.020599	0.034332	0.030365	0.075531	-0.47409	-0.066376	-0.13626	-0.018616	-0.005646	-0.011597
31.925	-0.000305	-0.44174	-0.17578	0.012817	-0.007324	-0.020752	-0.10117	0.008087	0.10391	0.005188	-0.1297	-0.003815	-0.014648	0.10895	-0.24963	-0.018463	-0.019379	-0.62836	-0.31982	-0.017395	-0.030823	0.19104	0.002747	0.002747	0.052185	0.054932	-0.45441	0.022888	0.068054	0.23514	-0.001831	-0.019226
31.926	-0.004272	-0.43716	-0.16083	0.033875	0.004272	-0.008698	-0.11185	0.005493	0.10254	0.026245	-0.067444	0.004272	-0.063782	0.083008	-0.046692	-0.016479	-0.020142	-0.56091	0.095062	-0.09079	-0.055542	0.17059	0.049591	-0.062256	0.037384	-0.091248	-0.1712	-0.010986	0.08667	0.16144	-0.002289	-0.011902
31.927	0	-0.49225	-0.17425	0.040894	-0.00061	-0.019989	-0.14603	-0.000763	0.10895	0.03891	0.082703	0.007172	-0.093842	0.07019	-0.010681	-0.032654	-0.005493	-0.35217	0.23697	-0.10895	0.021057	0.20996	0.081635	-0.097504	0.019836	-0.11398	-0.057678	-0.087585	0.62027	-0.38574	-0.003357	-0.01236
